# xmcd CD database file
#
# Track frame offsets:
#	150
#	23241
#	39359
#	62431
#	78561
#	94339
#	111893
#	128735
#	147358
#	165320
#	186703
#
# Disc length: 2701 seconds
#
# Revision: 0
# Processed by: cddbd v1.5.2PL0 Copyright (c) Steve Scherf et al.
# Submitted via: CDex 1.51
#
DISCID=920a8b0b
DTITLE=The loving cup - Goofer Dust
DYEAR=2007
DGENRE=Country
TTITLE0=Deadman jump
TTITLE1=Bloos on the sidewalk
TTITLE2=Sometimes
TTITLE3=Waiting for my luck to change
TTITLE4=Troubles weigh me down
TTITLE5=Candyman
TTITLE6=Bring along your lovers
TTITLE7=Two-hundred dollar riing
TTITLE8=You're the only one
TTITLE9=Ain't no doubt about it
TTITLE10=Life ain't easy
EXTD=YEAR: 2007
EXTT0=
EXTT1=
EXTT2=
EXTT3=
EXTT4=
EXTT5=
EXTT6=
EXTT7=
EXTT8=
EXTT9=
EXTT10=
PLAYORDER=
